HIERARCHY
ROOT Hips
{
 OFFSET 0.000000 0.000000 0.000000
 CHANNELS 6 Xposition Yposition Zposition Yrotation Xrotation Zrotation
 JOINT Chest
 {
  OFFSET 0.000000 9.585900 0.002600
  CHANNELS 3 Yrotation Xrotation Zrotation
  JOINT Chest2
  {
   OFFSET 0.000000 9.601200 -0.005300
   CHANNELS 3 Yrotation Xrotation Zrotation
   JOINT Chest3
   {
    OFFSET 0.000000 9.561800 0.000000
    CHANNELS 3 Yrotation Xrotation Zrotation
    JOINT Chest4
    {
     OFFSET 0.000000 9.552100 0.000000
     CHANNELS 3 Yrotation Xrotation Zrotation
     JOINT Neck
     {
      OFFSET 0.000000 14.453000 0.000000
      CHANNELS 3 Yrotation Xrotation Zrotation
      JOINT Head
      {
       OFFSET 0.000000 8.936500 -0.011300
       CHANNELS 3 Yrotation Xrotation Zrotation
       End Site
       {
        OFFSET 0.000000 17.073600 -0.006000
       }
      }
     }
     JOINT RightCollar
     {
      OFFSET -2.921100 9.558500 0.000000
      CHANNELS 3 Yrotation Xrotation Zrotation
      JOINT RightShoulder
      {
       OFFSET -13.519700 0.000000 0.000000
       CHANNELS 3 Yrotation Xrotation Zrotation
       JOINT RightElbow
       {
        OFFSET 0.000000 -29.696600 0.000000
        CHANNELS 3 Yrotation Xrotation Zrotation
        JOINT RightWrist
        {
         OFFSET 0.000000 -24.004700 0.000000
         CHANNELS 3 Yrotation Xrotation Zrotation
         End Site
         {
          OFFSET 0.000000 -17.728500 0.000000
         }
        }
       }
      }
     }
     JOINT LeftCollar
     {
      OFFSET 2.921100 9.558500 0.000000
      CHANNELS 3 Yrotation Xrotation Zrotation
      JOINT LeftShoulder
      {
       OFFSET 13.519700 0.000000 0.000000
       CHANNELS 3 Yrotation Xrotation Zrotation
       JOINT LeftElbow
       {
        OFFSET 0.000000 -29.696600 0.000000
        CHANNELS 3 Yrotation Xrotation Zrotation
        JOINT LeftWrist
        {
         OFFSET 0.000000 -24.004700 0.000000
         CHANNELS 3 Yrotation Xrotation Zrotation
         End Site
         {
          OFFSET 0.000000 -17.728500 0.000000
         }
        }
       }
      }
     }
    }
   }
  }
 }
 JOINT RightHip
 {
  OFFSET -7.771700 -0.012900 -0.001300
  CHANNELS 3 Yrotation Xrotation Zrotation
  JOINT RightKnee
  {
   OFFSET 0.000000 -40.869800 0.001200
   CHANNELS 3 Yrotation Xrotation Zrotation
   JOINT RightAnkle
   {
    OFFSET 0.000000 -39.717900 0.002100
    CHANNELS 3 Yrotation Xrotation Zrotation
    JOINT RightToe
    {
     OFFSET 0.000000 -4.965400 11.033500
     CHANNELS 3 Yrotation Xrotation Zrotation
     End Site
     {
      OFFSET 0.000000 -1.423100 5.872300
     }
    }
   }
  }
 }
 JOINT LeftHip
 {
  OFFSET 7.771700 -0.012900 -0.001300
  CHANNELS 3 Yrotation Xrotation Zrotation
  JOINT LeftKnee
  {
   OFFSET 0.000000 -40.869800 0.001200
   CHANNELS 3 Yrotation Xrotation Zrotation
   JOINT LeftAnkle
   {
    OFFSET 0.000000 -39.717900 0.002100
    CHANNELS 3 Yrotation Xrotation Zrotation
    JOINT LeftToe
    {
     OFFSET 0.000000 -4.965400 11.033500
     CHANNELS 3 Yrotation Xrotation Zrotation
     End Site
     {
      OFFSET 0.000000 -1.423100 5.872300
     }
    }
   }
  }
 }
}
MOTION
Frames: 8
Frame Time: 0.008333
0.000000 85.388000 0.000000 0.000000 -5.767877 0.000000 0.000000 11.653817 0.000000 0.000000 -5.885947 0.000000 0.000000 -0.000000 0.000000 0.000000 -0.000000 0.000000 0.000000 12.528835 0.000000 0.000000 0.711642 0.000000 0.000000 -0.000000 0.000000 0.000000 0.000000 -90.000000 0.000000 -2.309062 0.000000 0.000000 2.309062 0.000000 0.000000 -0.000000 0.000000 0.000000 -0.000000 90.000000 0.000000 -2.309062 0.000000 0.000000 2.309062 0.000000 0.000000 8.520406 0.000000 0.000000 1.905762 0.000000 -0.000000 -4.658285 0.000000 0.000000 -0.000000 0.000000 0.000000 8.520406 0.000000 0.000000 1.905762 0.000000 -0.000000 -4.658285 0.000000 0.000000 -0.000000 0.000000
-127.997435 57.325394 109.716150 173.890646 -52.061545 -0.152418 0.917522 27.609976 3.678339 0.046541 4.911422 0.589071 0.096842 7.749879 0.933806 0.662515 22.419909 2.845606 -2.292164 17.093971 -4.239031 -2.790746 -4.062191 -7.053168 3.702198 -0.389941 -1.182581 17.130631 -21.861594 -15.149373 134.067100 -57.882934 -100.742523 26.068809 -18.265942 -47.778129 -10.098303 -1.678449 -4.550690 -2.300397 -19.489438 -0.466369 104.467918 -78.982856 -129.706556 -5.075489 6.320161 0.838100 9.749702 -23.619557 -0.075520 -13.551528 62.610639 -12.425910 6.368703 27.934219 4.662404 -0.467239 -15.814475 3.805152 -10.118022 -21.326469 -0.619227 28.372807 60.082827 24.277358 -19.680952 10.782969 -6.053020 -0.078619 -0.104290 -0.040619
-127.996713 57.325606 109.716789 173.886489 -52.066594 -0.162009 0.922632 27.603037 3.680826 0.049010 4.917103 0.593795 0.097316 7.744212 0.930362 0.666109 22.417490 2.844251 -2.266274 17.183137 -4.213931 -2.753722 -3.884724 -7.009418 3.694674 -0.406478 -1.175273 17.127453 -21.842406 -15.143575 133.934425 -57.807651 -100.699175 25.974117 -18.253292 -47.827226 -10.085273 -1.665006 -4.544883 -2.283128 -19.483034 -0.453694 104.965867 -79.042022 -130.125359 -4.965520 6.180059 1.296026 9.746555 -23.615826 -0.066722 -13.545484 62.609718 -12.408696 6.360531 27.940386 4.662003 -0.460362 -15.818254 3.792914 -10.126078 -21.322449 -0.618091 28.391292 60.076001 24.316841 -19.699211 10.781857 -6.094411 -0.070537 -0.110400 -0.026184
-127.995495 57.326126 109.717496 173.876890 -52.074547 -0.169660 0.931269 27.597533 3.685539 0.052793 4.923439 0.598681 0.095676 7.731819 0.923840 0.670842 22.413350 2.842443 -2.237940 17.270052 -4.185627 -2.714376 -3.722860 -6.965896 3.698103 -0.412988 -1.170446 17.115937 -21.832823 -15.135652 133.825299 -57.751324 -100.663134 25.877074 -18.214575 -47.908862 -10.075235 -1.640567 -4.530174 -2.183250 -19.453812 -0.431552 105.706509 -79.084375 -130.827600 -4.830801 5.999046 1.877982 9.740793 -23.606289 -0.068729 -13.507903 62.606324 -12.346001 6.359306 27.949825 4.645120 -0.461836 -15.822302 3.786512 -10.126941 -21.313320 -0.608156 28.399851 60.073016 24.335965 -19.706851 10.780975 -6.120033 -0.062726 -0.113456 -0.016101
-127.992081 57.325024 109.719953 173.867375 -52.070746 -0.189985 0.944035 27.580654 3.703655 0.050863 4.908332 0.589465 0.100001 7.735377 0.927599 0.675780 22.408034 2.839136 -2.205976 17.354240 -4.153718 -2.670569 -3.577295 -6.922395 3.689312 -0.428148 -1.171898 17.123805 -21.817766 -15.114277 133.709019 -57.717554 -100.628310 25.769031 -18.167090 -48.029757 -10.056842 -1.611006 -4.516103 -2.123934 -19.422314 -0.420147 106.873917 -79.189152 -131.884333 -4.655037 5.756834 2.622572 9.724514 -23.607377 -0.067198 -13.455996 62.589284 -12.254931 6.356340 27.977576 4.607345 -0.461980 -15.831578 3.784104 -10.131163 -21.317832 -0.593332 28.445148 60.061830 24.409890 -19.734790 10.777203 -6.157486 -0.051846 -0.116507 -0.013099
-127.991840 57.324649 109.721649 173.864324 -52.073258 -0.193803 0.938387 27.573015 3.696346 0.050007 4.901600 0.585388 0.102093 7.735398 0.928163 0.676758 22.403787 2.833923 -2.172019 17.422879 -4.123934 -2.620650 -3.449081 -6.878375 3.691316 -0.423151 -1.170328 17.144139 -21.821175 -15.103576 133.564413 -57.689204 -100.602578 25.642375 -18.140493 -48.194863 -10.045093 -1.587316 -4.508125 -2.050988 -19.381666 -0.407760 108.565833 -79.327847 -133.426522 -4.430451 5.439924 3.544785 9.717905 -23.605046 -0.068595 -13.439604 62.587166 -12.230829 6.365121 27.988354 4.609735 -0.464870 -15.839397 3.774963 -10.110950 -21.321473 -0.619170 28.494981 60.045477 24.508004 -19.754048 10.778630 -6.195943 -0.059907 -0.122786 -0.007997
-127.994076 57.324723 109.722826 173.847607 -52.079997 -0.169034 0.936343 27.575761 3.675703 0.046685 4.897806 0.581533 0.096999 7.728254 0.923138 0.674479 22.399776 2.826383 -2.137640 17.474970 -4.098663 -2.562817 -3.331341 -6.829962 3.698134 -0.415924 -1.175963 17.164470 -21.824706 -15.084795 133.414407 -57.667706 -100.608091 25.513915 -18.148492 -48.414591 -10.029216 -1.571124 -4.501607 -1.981176 -19.323278 -0.401329 110.881116 -79.489706 -135.540406 -4.179269 5.055090 4.643381 9.708412 -23.594285 -0.108210 -13.354684 62.592533 -12.140752 6.393734 27.993393 4.626225 -0.489083 -15.844633 3.754263 -10.075165 -21.318588 -0.653700 28.521703 60.031390 24.572896 -19.784038 10.776288 -6.238916 -0.053630 -0.124991 0.009725
-127.993113 57.324165 109.724870 173.818276 -52.083161 -0.150771 0.949681 27.575676 3.672516 0.050009 4.898892 0.583837 0.086862 7.718856 0.916227 0.661853 22.393393 2.815295 -2.099197 17.525553 -4.068975 -2.503703 -3.236518 -6.787565 3.709304 -0.397250 -1.183097 17.178648 -21.832672 -15.068311 133.268978 -57.636705 -100.652479 25.394928 -18.191331 -48.705289 -10.013177 -1.559580 -4.496897 -1.911530 -19.254216 -0.403582 113.860416 -79.664441 -138.265915 -3.962452 4.590236 5.921467 9.712951 -23.592854 -0.117494 -13.336612 62.590013 -12.108178 6.405945 28.008337 4.622405 -0.495390 -15.852940 3.743509 -10.040936 -21.316023 -0.660924 28.539219 60.020619 24.620967 -19.799143 10.779288 -6.263087 -0.066538 -0.129891 0.014172
